<svg xmlns="http://www.w3.org/2000/svg" width="24" height="24" viewBox="0 0 24 24"><path fill="#001d2f" fill-rule="evenodd" d="M11.8699779 17.9014309c.3918006.0.726165.138871899999998 1.003404.4161109C13.1506209 18.5947808 13.289221 18.9291064 13.289221 19.320907 13.289221 19.7127075 13.1506209 20.047072 12.8733819 20.3242721 12.5961429 20.6015111 12.2617785 20.7402665 11.8699779 20.7402665 11.4780609 20.7402665 11.1436964 20.6015111 10.8663409 20.3242721 10.5891019 20.047072 10.4506184 19.7127075 10.4506184 19.320907c0-.3918006.1386389-.7261262.415722500000001-1.0033652C11.1436964 18.0403028 11.4782162 17.9014309 11.8699779 17.9014309zM6.90282136 15.5952483c.43614948.0.81117357.155493 1.12542178.465663600000001C8.34237484 16.371898 8.49938244 16.7485143 8.49938244 17.19212 8.49938244 17.6357646 8.342336 18.013041 8.02824314 18.323367 7.71403376 18.6338094 7.33897084 18.7890306 6.90282136 18.7890306c-.44348919.0-.820455-.1552212-1.13105277-.465663599999999C5.46128733 18.0126527 5.30610494 17.6357646 5.30610494 17.19212c0-.443605699999999.15529889-.820493799999998.46566365-1.1312081C6.08224986 15.7504695 6.45921567 15.5952483 6.90282136 15.5952483zm9.93435194.3549855C17.1771299 15.9502338 17.469126 16.0720574 17.7130839 16.316093 17.9570806 16.5601285 18.0789819 16.8519304 18.0789819 17.1921589 18.0789819 17.5322708 17.9570806 17.8242669 17.7130839 18.0682636 17.4690872 18.3119885 17.1771299 18.4339674 16.8371733 18.4339674 16.4969837 18.4339674 16.2049877 18.3122215 15.9609909 18.0682636 15.7172661 17.8242281 15.5952483 17.5321155 15.5952483 17.1921589c0-.340228499999999.1220178-.632341.365742600000001-.8760659C16.2049877 16.0720962 16.4969449 15.9502338 16.8371733 15.9502338zM4.77399559 10.4506572c.487838099999999.0.90554123.1736676 1.25295404.521080400000001C6.37440127 11.3194611 6.54803001 11.73697 6.54803001 12.2248081c0 .4877605-.17362874.905424799999999-.52108038 1.2527211-.34741281.347529300000002-.76511594.5212357-1.25295404.5212357-.487876940000001.0-.9055024-.173706399999999-1.25295405-.5212357C3.17362874 13.1299998 3 12.7125686 3 12.2248081c0-.487993400000001.17366757-.9056189.52104154-1.2530705C3.86849319 10.6243636 4.28611865 10.4506572 4.77399559 10.4506572zm14.19208121.709738C19.2616456 11.1603952 19.5129432 11.2637725 19.7198531 11.47076 19.9270736 11.677864 20.030179 11.9292781 20.030179 12.2249635 20.030179 12.5204935 19.9269183 12.7719852 19.7198531 12.9787397 19.5130986 13.1858049 19.2616456 13.2891822 18.9660768 13.2891822 18.6702361 13.2891822 18.419055 13.1858049 18.2120287 12.9787397 18.0052353 12.7722182 17.9018581 12.5204935 17.9018581 12.2249635 17.9018581 11.9291228 18.0052353 11.6777475 18.2120287 11.47076 18.4189385 11.2637725 18.6702361 11.1603952 18.9660768 11.1603952zM6.90293786 5.30629912c.539565570000001.0.99971473.19036637 1.38033098.57098262C8.66388508 6.25789798 8.85425146 6.71804714 8.85425146 7.25761271 8.85425146 7.79725595 8.66388508 8.25732744 8.28326884 8.63809902 7.90265259 9.01871527 7.44250343 9.20915931 6.90293786 9.20915931c-.53956556.0-.99967589-.19032754-1.38048631-.57106029C5.1417188 8.25732744 4.95146893 7.79737245 4.95146893 7.25761271c0-.53956557.19024987-.99971473.570982620000001-1.38033097.38069392-.38061625.84080424-.57098262 1.38048631-.57098262zM16.8371733 6.3705955C17.0808982 6.3705955 17.289944 6.45742928 17.4635339 6.63121336 17.6372403 6.80488093 17.7242682 7.01361599 17.7242682 7.25761271 17.7242682 7.50149293 17.6372403 7.71038333 17.4635339 7.8841674 17.2900605 8.05779614 17.0808982 8.14478526 16.8371733 8.14478526 16.5931766 8.14478526 16.3842474 8.05795147 16.210541 7.8841674 16.0369511 7.71038333 15.9500785 7.50160943 15.9500785 7.25761271S16.0369511 6.80491976 16.210541 6.63121336c.1737064-.17362874.3826356-.26061786.626632300000001-.26061786zM11.8699779 3C12.461504 3 12.9640215 3.20698751 13.3778412 3.62080719 13.7916609 4.03493755 13.9986095 4.53757158 13.9986095 5.12882577c0 .59133186-.2069486 1.09404356-.6207683 1.50786324C12.9640215 7.05066403 12.461504 7.25753504 11.8699779 7.25753504 11.2786072 7.25753504 10.7758567 7.05054753 10.3618817 6.63668901 9.9479455 6.22267516 9.7410745 5.72015763 9.7410745 5.12882577c0-.59129303.206948670000001-1.09404355.6208072-1.50801858C10.7758567 3.20687101 11.2787237 3 11.8699779 3z"/></svg>