<svg xmlns="http://www.w3.org/2000/svg" xmlns:xlink="http://www.w3.org/1999/xlink" width="48" height="48" viewBox="0 0 48 48"><defs><path id="gb-a" d="M8 9H40c2.209139.0 4 1.790861 4 4V35c0 2.209139-1.790861 4-4 4H8c-2.209139.0-4-1.790861-4-4V13c0-2.209139 1.790861-4 4-4z"/><polygon id="gb-c" points="0 0 40 0 40 30 0 30"/></defs><g fill="none" fill-rule="evenodd"><polygon points="0 0 48 0 48 48 0 48"/><mask id="gb-b" fill="#fff"><use xlink:href="#gb-a"/></mask><use fill="#d8d8d8" xlink:href="#gb-a"/><g mask="url(#gb-b)"><g transform="translate(4 9)"><mask id="gb-d" fill="#fff"><use xlink:href="#gb-c"/></mask><use fill="#006" fill-rule="nonzero" xlink:href="#gb-c"/><path fill="#fff" fill-rule="nonzero" d="M-10 0V3.34760234L43.1891813 29.9422222h6.6950292V26.5947368L-3.30497076.0H-10zM49.8842105.0V3.34754386L-3.30497076 29.9421053H-10V26.5945614L43.1891813.0h6.6950292z" mask="url(#gb-d)"/><path fill="#fff" fill-rule="nonzero" d="M14.9517544.0V29.9421053h9.9807017V0H14.9517544zM-10 9.98070175V19.9614035H49.8842105V9.98070175H-10z" mask="url(#gb-d)"/><path fill="#c00" fill-rule="nonzero" d="M-10 11.9768421v5.9884211H49.8842105V11.9768421H-10zM16.9479532.0V29.9421053h5.9883041V0H16.9479532zM-10 29.9421053 9.96140351 19.9614035H14.4247953L-5.53660819 29.9421053H-10zM-10 0 9.96140351 9.98070175H5.4980117L-10 2.23181287V0zM25.4594152 9.98070175 45.4208187.0h4.4633918L29.922807 9.98070175H25.4594152zM49.8842105 29.9421053 29.922807 19.9614035h4.4633918l15.4980117 7.7490059v2.2316959z" mask="url(#gb-d)"/></g></g></g></svg>