<svg xmlns="http://www.w3.org/2000/svg" xmlns:xlink="http://www.w3.org/1999/xlink" width="48" height="48" viewBox="0 0 48 48"><defs><path id="tw-a" d="M8 9H40c2.209139.0 4 1.790861 4 4V35c0 2.209139-1.790861 4-4 4H8c-2.209139.0-4-1.790861-4-4V13c0-2.209139 1.790861-4 4-4z"/></defs><g fill="none" fill-rule="evenodd"><polygon points="0 0 48 0 48 48 0 48"/><mask id="tw-b" fill="#fff"><use xlink:href="#tw-a"/></mask><use fill="#d8d8d8" xlink:href="#tw-a"/><g fill-rule="nonzero" mask="url(#tw-b)"><g transform="translate(4 9)"><polygon fill="#de2110" points="0 0 40 0 40 30 0 30"/><polygon fill="#08399c" points="0 0 20 0 20 15 0 15"/><polygon fill="#fff" points="15.181 10.46 12.408 9.89 12.999 12.659 10.881 10.779 10.008 13.472 9.115 10.785 7.012 12.681 7.582 9.908 4.813 10.498 6.693 8.382 4 7.508 6.687 6.615 4.791 4.512 7.564 5.082 6.974 2.313 9.091 4.194 9.964 1.5 10.857 4.187 12.96 2.291 12.39 5.064 15.159 4.474 13.279 6.591 15.972 7.464 13.285 8.357"/><polygon fill="#005387" points="12.577 10.247 11.702 10.712 10.848 11.216 9.857 11.182 8.865 11.194 8.024 10.67 7.159 10.185 6.693 9.312 6.188 8.461 6.221 7.472 6.21 6.483 6.735 5.644 7.222 4.782 8.097 4.317 8.95 3.813 9.942 3.846 10.934 3.835 11.775 4.359 12.639 4.844 13.105 5.717 13.611 6.568 13.577 7.556 13.588 8.546 13.063 9.385"/><path fill="#fff" d="M12.9531055 7.47646484c0 1.67847657-1.3606641 3.03908206-3.03902347 3.03908206C8.23572266 10.5155469 6.875 9.15494141 6.875 7.47652344 6.875 5.79810547 8.23566406 4.4375 9.91408203 4.4375S12.9531055 5.79810547 12.9531055 7.47652344V7.47646484z"/></g></g></g></svg>