<svg xmlns="http://www.w3.org/2000/svg" width="24" height="24" viewBox="0 0 24 24"><path fill="#001d2f" fill-rule="evenodd" d="M15.6 3c1.6568542.0 3 1.34314575 3 3C18.6 6.35097203 18.5397302 6.6878673 18.4289758 7.00090072L20 7C20.5522847 7 21 7.44771525 21 8v4C21 12.5522847 20.5522847 13 20 13H19.4v7C19.4 20.5128358 19.0139598 20.9355072 18.5166211 20.9932723L18.4 21H5.6C5.08716416 21 4.66449284 20.6139598 4.60672773 20.1166211L4.6 20 4.599 13H4c-.51283584.0-.93550716-.3860402-.99327227-.8833789L3 12V8c0-.55228475.44771525-1 1-1L5.57102423 7.00090072C5.46026977 6.6878673 5.4 6.35097203 5.4 6c0-1.65685425 1.34314575-3 3-3 1.57410523.0 2.7604661.8878216 3.6001113 2.29772464C12.8395339 3.8878216 14.0258948 3 15.6 3zM11 13H6.599v6H11V13zm6.399.0H13v6h4.399V13zM11 9H5v2h6V9zm8 0H13v2h6V9zM8.4 5c-.55228475.0-1 .44771525-1 1s.44771525 1 1 1h2.224l-.1027273-.23090758L10.3737841 6.48191875C9.84420586 5.51904924 9.19539431 5 8.4 5zm7.2.0c-.7953943.0-1.4442059.51904924-1.9737841 1.48191875C13.5746629 6.57565149 13.5255015 6.67155262 13.4787273 6.76909242L13.375 7H15.6C16.1128358 7 16.5355072 6.61395981 16.5932723 6.11662113L16.6 6c0-.55228475-.447715300000002-1-1-1z"/></svg>