<svg xmlns="http://www.w3.org/2000/svg" xmlns:xlink="http://www.w3.org/1999/xlink" width="48" height="48" viewBox="0 0 48 48"><defs><path id="kr-a" d="M8 9H40c2.209139.0 4 1.790861 4 4V35c0 2.209139-1.790861 4-4 4H8c-2.209139.0-4-1.790861-4-4V13c0-2.209139 1.790861-4 4-4z"/></defs><g fill="none" fill-rule="evenodd"><polygon points="0 0 48 0 48 48 0 48"/><mask id="kr-b" fill="#fff"><use xlink:href="#kr-a"/></mask><use fill="#d8d8d8" xlink:href="#kr-a"/><g mask="url(#kr-b)"><g transform="translate(4 9)"><polygon fill="#fff" fill-rule="nonzero" points="40 30 0 30 0 0 40 0"/><path stroke="#dedede" d="M4 .5C2.06700338.5.5 2.06700338.5 4V26c0 1.9329966 1.56700338 3.5 3.5 3.5H36c1.9329966.0 3.5-1.5670034 3.5-3.5V4C39.5 2.06700338 37.9329966.5 36 .5H4z"/><path fill="#fff" fill-rule="nonzero" d="M20.3719141 14.654707c0 3.6408399-2.9514844 6.5922657-6.5922071 6.5922657-3.6408398.0-6.592207-2.9514844-6.592207-6.5922657.0-3.6408398 2.9514258-6.592207 6.592207-6.592207 3.6408399.0 6.5922071 2.9514844 6.5922071 6.592207z"/><path fill="#c70000" fill-rule="nonzero" d="M28.585332 15.0392969c0 4.7507226-3.8105859 8.6017383-8.5113867 8.6017383-4.7008008.0-8.5114453-3.8509571-8.5114453-8.6017383.0-4.7507813 3.8105859-8.6017969 8.5114453-8.6017969 4.7008594.0 8.5113281 3.8510742 8.5113281 8.6017969H28.585332z"/><path fill="#000" fill-rule="nonzero" d="M2.6875 7.04511719 7.58945313 1.375 8.75083984 2.37900391 3.84888672 8.04917969 2.6875 7.04511719zM4.29291016 8.43302734 9.19486328 2.76291016l1.16132812 1.0040039L5.45423828 9.43703125 4.29291016 8.43302734z"/><polygon fill="#000" fill-rule="nonzero" points="2.688 7.045 7.589 1.375 8.751 2.379 3.849 8.049"/><path fill="#000" fill-rule="nonzero" d="M2.6875 7.04511719 7.58945312 1.375 8.75083984 2.37900391 3.84888672 8.04917969 2.6875 7.04511719zM5.93265625 9.85058594 10.8346094 4.18046875l1.1613281 1.0040625L7.09398438 10.8546484 5.93265625 9.85058594z"/><polygon fill="#000" fill-rule="nonzero" points="2.688 7.045 7.589 1.375 8.751 2.379 3.849 8.049"/><path fill="#000" fill-rule="nonzero" d="M2.6875 7.04699219 7.58945312 1.376875 8.75083984 2.38087891 3.84888672 8.05105469 2.6875 7.04699219zM32.5017578 1.375l4.8633984 5.70322266-1.1681835.99609375-4.8633985-5.70316407L32.5017578 1.375zM29.2377344 4.15837891l4.8633984 5.70322265L32.9330078 10.8576953 28.0696094 5.15453125l1.168125-.99615234z"/><polygon fill="#fff" fill-rule="nonzero" points="30.063 7.473 34.668 3.5 35.526 4.493 30.604 8.918 30.063 7.473"/><path fill="#000" fill-rule="nonzero" d="M35.6857422 21.4339648l-4.711875 5.6149805-1.1552344-.9609375 4.7119336-5.6149219L35.6857422 21.4339648zM30.859082 2.75l4.8633985 5.70316406L34.5543555 9.44931641 29.690957 3.74615234 30.859082 2.75zm6.4231641 20.011875-4.7119336 5.6149805L31.4151367 27.4159766l4.7119336-5.6149805L37.2822461 22.761875zM34.0546094 20.077168l-4.7119336 5.615039L28.1875 24.7312695l4.711875-5.6149804L34.0546094 20.077168z"/><path fill="#3d5897" fill-rule="nonzero" d="M11.7371997 13.5049676C12.0062622 15.6714129 12.3991333 18.085534 15.7332348 18.3363153 16.9829223 18.4111981 19.4139184 18.0390106 20.2485278 14.6337762c1.095-3.2712305 4.3930664-4.2117188 6.6375-2.4382617C28.1585669 13.0255535 28.5106567 14.3439129 28.6018286 15.3336199c-.1018945 3.1783008-1.9262109 5.9296875-4.2669727 7.1566407C21.643645 24.0898699 17.9153247 24.1232684 14.6493091 21.6998309c-1.471875-1.3810547-3.5284571-3.9269531-2.9121094-8.1949219V13.5049676z"/><polygon fill="#fff" fill-rule="nonzero" points="31.098 21.375 35.712 25.34 34.857 26.335 29.75 22.125 31.098 21.375"/><polygon fill="#000" fill-rule="nonzero" points="5.481 20.563 10.344 26.266 9.176 27.262 4.313 21.559"/><polygon fill="#fff" fill-rule="nonzero" points="4.625 25.286 9.231 21.313 10.088 22.306 5.167 26.731 4.625 25.286"/><path fill="#000" fill-rule="nonzero" d="M7.11964844 19.1875l4.86345706 5.7031641L10.8149219 25.8867578l-4.86339846-5.703164L7.11964844 19.1875zM3.85568359 21.9708789 8.71908203 27.674043 7.55095703 28.6701367 2.6875 22.9670312 3.85568359 21.9708789z"/></g></g></g></svg>