<svg xmlns="http://www.w3.org/2000/svg" width="24" height="24" viewBox="0 0 24 24"><path fill="#001d2f" fill-rule="evenodd" d="M15.5555556 2.88888889c.5522847.0 1 .44771525 1 1 0 .51283584-.3860402.93550716-.883378900000002.99327227L15.5555556 4.88888889H14.777L14.7774028 6.51306284c3.4372167.47590023 6.1014381 3.37071597 6.2185781 6.91036096L21 13.6666667c0 3.9887232-3.233499 7.2222222-7.2222222 7.2222222-2.2611293.0-4.27956465-1.0390961-5.60384126-2.6658235L5.77777778 18.2222222c-.55228475.0-1-.447715200000001-1-1 0-.512835800000001.38604019-.935507100000002.88337887-.9932722L5.77777778 16.2222222 7.02094698 16.2228279C6.83352628 15.7276702 6.69897253 15.2065287 6.62417395 14.6662917L4 14.6666667c-.55228475.0-1-.447715300000001-1-1C3 13.1538308 3.38604019 12.7311595 3.88337887 12.6733944L4 12.6666667 6.6242895 12.6662074C6.69906028 12.1266346 6.83344021 11.6061152 7.02056569 11.111513L5.77777778 11.1111111c-.55228475.0-1-.447715200000001-1-1 0-.51283583.38604019-.935507150000001.88337887-.993272260000001L5.77777778 9.11111111 8.1732978 9.11105266c1.12548468-1.3829272 2.7525866-2.3413136 4.6040207-2.59787427L12.777 4.88888889H12c-.5522847.0-1-.44771525-1-1 0-.51283584.3860402-.93550716.8833789-.99327227L12 2.88888889h3.5555556zM13.7777778 8.44444444c-2.8841537.0-5.22222224 2.33806856-5.22222224 5.22222226L8.56027829 13.4996598C8.56940887 13.5539684 8.57416183 13.6097625 8.57416183 13.6666667 8.57416183 13.7235708 8.56940887 13.7793649 8.56027829 13.8336735 8.64614324 16.6403305 10.949371 18.8888889 13.7777778 18.8888889 16.6619315 18.8888889 19 16.5508204 19 13.6666667c0-2.8841537-2.3380685-5.22222226-5.2222222-5.22222226zm0 .48888889c.5128358.0.935507099999999.386040189999999.9932722.88337888L14.7777778 9.93333333 14.777 13.048l1.9368803.9686839C17.1725746 14.2460311 17.3779809 14.7803403 17.2072309 15.2510069L17.1610939 15.3583247C16.9317467 15.817019 16.3974375 16.0224253 15.9267709 15.8516754L15.8194531 15.8055383l-2.4888889-1.2444444C13.0294228 14.4105232 12.8268744 14.1202025 12.7855814 13.791522L12.7777778 13.6666667V9.93333333c0-.55228475.447715199999999-1 1-1z"/></svg>