<svg xmlns="http://www.w3.org/2000/svg" xmlns:xlink="http://www.w3.org/1999/xlink" width="48" height="48" viewBox="0 0 48 48"><defs><path id="jp-a" d="M8 9H40c2.209139.0 4 1.790861 4 4V35c0 2.209139-1.790861 4-4 4H8c-2.209139.0-4-1.790861-4-4V13c0-2.209139 1.790861-4 4-4z"/></defs><g fill="none" fill-rule="evenodd"><polygon points="0 0 48 0 48 48 0 48"/><mask id="jp-b" fill="#fff"><use xlink:href="#jp-a"/></mask><use fill="#d8d8d8" xlink:href="#jp-a"/><g mask="url(#jp-b)"><g transform="translate(4 9)"><polygon fill="#fff" fill-rule="nonzero" points="0 0 40 0 40 30 0 30"/><path stroke="#dedede" d="M4 .5C2.06700338.5.5 2.06700338.5 4V26c0 1.9329966 1.56700338 3.5 3.5 3.5H36c1.9329966.0 3.5-1.5670034 3.5-3.5V4C39.5 2.06700338 37.9329966.5 36 .5H4z"/><circle cx="20.29" cy="15.29" r="8.29" fill="#d30000" fill-rule="nonzero"/></g></g></g></svg>