<svg xmlns="http://www.w3.org/2000/svg" width="24" height="24" viewBox="0 0 24 24"><path fill="#001d2f" fill-rule="evenodd" d="M12.2861349 5.00096459C13.2340422 5.00600615 14.2968823 5.02399248 15.3048855 5.0615208c1.5371033.0572269099999998 2.6242352.14627041 3.2387203.30717092 1.0449863.31553398 1.8393881 1.18959744 2.1078655 2.34305774C20.8918236 9.13387076 21.0084831 10.5765312 20.9999943 12.0121568 21.0047868 13.4354372 20.8881418 14.8562671 20.6390393 16.3188822 20.3829939 17.410663 19.5885921 18.2847264 18.5290163 18.604545 17.9432478 18.7717425 16.8525839 18.8695832 15.3084231 18.932548L14.756218 18.952762C14.1962671 18.971055 13.6154194 18.9836873 13.0347411 18.9915799L12.5208156 18.9972664H11.4791844L10.3853044 18.9820733C9.80685384 18.9709186 9.23525593 18.9547171 8.69157686 18.932548 7.14741605 18.8695832 6.05675218 18.7717425 5.46513804 18.6028572 4.44146526 18.3039197 3.65072439 17.4686857 3.34852873 16.3192984c-.2403523-1.4221213-.35701185-2.8647818-.34851801-4.2991448C2.99337135 10.586075 3.1100236 9.15433087 3.3609607 7.6811178c.25604536-1.09178078 1.05044721-1.96584423 2.110023-2.28566277C6.0721302 5.22386812 7.20811541 5.12486821 8.81607373 5.06250028L9.33167473 5.04436149C9.84837279 5.02796949 10.3657598 5.01670731 10.8604155 5.00957989L11.8124792 5.00054324zM9.35168563 9.60870538V14.365069c0 .766907399999999.82770157 1.248383 1.49434707.8692647l4.1818181-2.3781819C15.7020548 12.472735 15.7020548 11.5010394 15.0278508 11.1176226L10.8460327 8.73944073C10.1793872 8.36032235 9.35168563 8.84179798 9.35168563 9.60870538z"/></svg>