<svg xmlns="http://www.w3.org/2000/svg" width="24" height="24" viewBox="0 0 24 24"><path fill="#001d2f" fill-rule="evenodd" d="M6.61289944 5.20970461 6.70710678 5.29289322 12 10.585l5.2928932-5.29210678c.390524299999999-.39052429 1.0236893-.39052429 1.4142136.0C19.0675907 5.65337718 19.0953203 6.22060824 18.7902954 6.61289944L18.7071068 6.70710678 13.415 12l5.2921068 5.2928932C19.0976311 17.6834175 19.0976311 18.3165825 18.7071068 18.7071068 18.3466228 19.0675907 17.7793918 19.0953203 17.3871006 18.7902954L17.2928932 18.7071068 12 13.415 6.70710678 18.7071068C6.31658249 19.0976311 5.68341751 19.0976311 5.29289322 18.7071068 4.93240926 18.3466228 4.90467972 17.7793918 5.20970461 17.3871006L5.29289322 17.2928932 10.585 12 5.29289322 6.70710678c-.39052429-.39052429-.39052429-1.02368927.0-1.41421356C5.65337718 4.93240926 6.22060824 4.90467972 6.61289944 5.20970461z"/></svg>