<svg xmlns="http://www.w3.org/2000/svg" xmlns:xlink="http://www.w3.org/1999/xlink" width="48" height="48" viewBox="0 0 48 48"><defs><path id="tr-a" d="M8 9H40c2.209139.0 4 1.790861 4 4V35c0 2.209139-1.790861 4-4 4H8c-2.209139.0-4-1.790861-4-4V13c0-2.209139 1.790861-4 4-4z"/></defs><g fill="none" fill-rule="evenodd"><polygon points="0 0 48 0 48 48 0 48"/><mask id="tr-b" fill="#fff"><use xlink:href="#tr-a"/></mask><use fill="#d8d8d8" xlink:href="#tr-a"/><g fill-rule="nonzero" mask="url(#tr-b)"><g transform="translate(4 9)"><polygon fill="#f31930" points="0 0 40 0 40 30 0 30"/><path fill="#fff" d="M25.4360625 15.4670625c0 4.1384375-3.412875 7.493125-7.623125 7.493125-4.21025.0-7.6229375-3.3548125-7.6229375-7.4931875.0-4.138375 3.412875-7.493125 7.623-7.493125s7.623125 3.3548125 7.623125 7.493125L25.4360625 15.4670625z"/><path fill="#f31830" d="M25.8173125 15.4666875c0 3.310625-2.730375 5.994375-6.0984375 5.994375s-6.098375-2.68375-6.098375-5.994375 2.730375-5.994375 6.098375-5.994375c3.368.0 6.0984375 2.68375 6.0984375 5.994375z"/><polygon fill="#fff" points="26.92 11.967 26.859 14.736 24.275 15.438 26.822 16.345 26.761 18.885 28.422 16.902 30.932 17.773 29.48 15.644 31.252 13.527 28.532 14.277 26.92 11.967"/></g></g></g></svg>