<svg xmlns="http://www.w3.org/2000/svg" xmlns:xlink="http://www.w3.org/1999/xlink" width="48" height="48" viewBox="0 0 48 48"><defs><rect id="ca-a" width="40" height="30" x="4" y="9" rx="4"/></defs><g fill="none" fill-rule="evenodd"><polygon points="0 0 48 0 48 48 0 48"/><mask id="ca-b" fill="#fff"><use xlink:href="#ca-a"/></mask><use fill="#d8d8d8" xlink:href="#ca-a"/><g mask="url(#ca-b)"><g transform="translate(4 9)"><polygon fill="#fff" fill-rule="nonzero" points="0 0 40 0 40 30 0 30"/><polygon fill="#bf0a30" points="0 0 10.625 0 10.625 30 0 30"/><polygon fill="#bf0a30" points="29.375 0 40 0 40 30 29.375 30"/><path fill="#bf0a30" d="M12.8242383 14.8101953 12 15.0919141l3.8353125 3.3659765C16.1253516 19.3229688 15.7345313 19.5779687 15.4855078 20.0317187L19.6491797 19.5032031 19.5407813 23.6933594 20.4031641 23.6685742 20.2150781 19.5132227 24.3828516 20.0072852C24.1249219 19.4625391 23.8953516 19.1733203 24.1340039 18.3023242l3.8328516-3.1890234L27.2961328 14.8704883C26.7476953 14.4473242 27.5330859 12.8323633 27.6515625 11.8131836c0 0-2.2379883.769628899999999-2.3846484.366914099999999L24.6969727 11.0852734l-2.0359571 2.2365235C22.4385938 13.3751172 22.3438477 13.2866406 22.2916406 13.0986719l.9406055-4.67378909L21.742793 9.26259766C21.6181055 9.31591797 21.493418 9.26992187 21.4112695 9.12460938L19.9786523 6.25 18.5015039 9.23535156C18.3901758 9.34234375 18.2786719 9.35470703 18.1861523 9.28199219L16.7679492 8.48640625 17.6193164 13.1236914C17.551582 13.3076758 17.3893945 13.3595312 17.1986133 13.2598633l-1.94625-2.2111524C14.9977734 11.4566406 14.8252148 12.1230859 14.4887109 12.2724414 14.1521484 12.4123047 13.0250391 11.9898437 12.2695898 11.8249609c.2580469.9313477 1.065 2.4786328.554296899999999 2.9857618L12.8242383 14.8101953z"/></g></g></g></svg>