<svg xmlns="http://www.w3.org/2000/svg" xmlns:xlink="http://www.w3.org/1999/xlink" width="48" height="48" viewBox="0 0 48 48"><defs><path id="ar-a" d="M8 9H40c2.209139.0 4 1.790861 4 4V35c0 2.209139-1.790861 4-4 4H8c-2.209139.0-4-1.790861-4-4V13c0-2.209139 1.790861-4 4-4z"/></defs><g fill="none" fill-rule="evenodd"><polygon points="0 0 48 0 48 48 0 48"/><mask id="ar-b" fill="#fff"><use xlink:href="#ar-a"/></mask><use fill="#d8d8d8" xlink:href="#ar-a"/><g mask="url(#ar-b)"><g transform="translate(4 9)"><polygon fill="#74acdf" fill-rule="nonzero" points="0 0 40 0 40 30 0 30"/><polygon fill="#fff" fill-rule="nonzero" points="0 10 40 10 40 20 0 20"/><g transform="translate(16.04 14.7)"><path fill="#f6b40e" fill-rule="nonzero" stroke="#85340a" stroke-width=".1" d="M3.7704.3786 5.47764 4.09812S5.50704 4.16922 5.55444 4.14966C5.60184 4.13004 5.57238 4.05894 5.57238 4.05894L4.14948.22158m-.0408 1.4472C4.08786 2.23446 4.4358 2.54556 4.39032 3.0507c-.04542.5052.23202.7908.2964.98724S4.61712 4.35186 4.67484 4.37982C4.73262 4.40778 4.85904 4.25262 4.81782 3.97332S4.56462 3.6111 4.61442 2.99412C4.66422 2.37714 4.36206 2.23344 4.43562 1.67064"/><path fill="#f6b40e" fill-rule="nonzero" stroke="#85340a" stroke-width=".1" d="M.0504.1986 1.75764 3.91812S1.78704 3.98922 1.83444 3.96966C1.88184 3.95004 1.85238 3.87894 1.85238 3.87894L.42948.04158m-.0408 1.4472c-.02082.56568.32712.87678.28164 1.38192-.04542.5052.23202.7908.2964.98724s-.0696.31392-.01188.34188C1.01262 4.22778 1.13904 4.07262 1.09782 3.79332c-.04122-.2793-.2532-.36222-.2034-.9792S.64206 2.05344.71562 1.49064" transform="rotate(22.5 1.648 9.56)"/><path fill="#f6b40e" fill-rule="nonzero" stroke="#85340a" stroke-width=".1" d="M.0504.1986 1.75764 3.91812S1.78704 3.98922 1.83444 3.96966C1.88184 3.95004 1.85238 3.87894 1.85238 3.87894L.42948.04158m-.0408 1.4472c-.02082.56568.32712.87678.28164 1.38192-.04542.5052.23202.7908.2964.98724s-.0696.31392-.01188.34188C1.01262 4.22778 1.13904 4.07262 1.09782 3.79332c-.04122-.2793-.2532-.36222-.2034-.9792S.64206 2.05344.71562 1.49064" transform="rotate(45 1.883 4.7)"/><path fill="#f6b40e" fill-rule="nonzero" stroke="#85340a" stroke-width=".1" d="M.0504.1986 1.75764 3.91812S1.78704 3.98922 1.83444 3.96966C1.88184 3.95004 1.85238 3.87894 1.85238 3.87894L.42948.04158m-.0408 1.4472c-.02082.56568.32712.87678.28164 1.38192-.04542.5052.23202.7908.2964.98724s-.0696.31392-.01188.34188C1.01262 4.22778 1.13904 4.07262 1.09782 3.79332c-.04122-.2793-.2532-.36222-.2034-.9792S.64206 2.05344.71562 1.49064" transform="rotate(67.5 1.965 2.994)"/></g><g fill="#f6b40e" fill-rule="nonzero" stroke="#85340a" stroke-width=".1" transform="rotate(90 4.63 15.67)"><path d="M3.7704.3786 5.47764 4.09812S5.50704 4.16922 5.55444 4.14966C5.60184 4.13004 5.57238 4.05894 5.57238 4.05894L4.14948.22158m-.0408 1.4472C4.08786 2.23446 4.4358 2.54556 4.39032 3.0507c-.04542.5052.23202.7908.2964.98724S4.61712 4.35186 4.67484 4.37982C4.73262 4.40778 4.85904 4.25262 4.81782 3.97332S4.56462 3.6111 4.61442 2.99412C4.66422 2.37714 4.36206 2.23344 4.43562 1.67064"/><path d="M.0504.1986 1.75764 3.91812S1.78704 3.98922 1.83444 3.96966C1.88184 3.95004 1.85238 3.87894 1.85238 3.87894L.42948.04158m-.0408 1.4472c-.02082.56568.32712.87678.28164 1.38192-.04542.5052.23202.7908.2964.98724s-.0696.31392-.01188.34188C1.01262 4.22778 1.13904 4.07262 1.09782 3.79332c-.04122-.2793-.2532-.36222-.2034-.9792S.64206 2.05344.71562 1.49064" transform="rotate(22.5 1.648 9.56)"/><path d="M.0504.1986 1.75764 3.91812S1.78704 3.98922 1.83444 3.96966C1.88184 3.95004 1.85238 3.87894 1.85238 3.87894L.42948.04158m-.0408 1.4472c-.02082.56568.32712.87678.28164 1.38192-.04542.5052.23202.7908.2964.98724s-.0696.31392-.01188.34188C1.01262 4.22778 1.13904 4.07262 1.09782 3.79332c-.04122-.2793-.2532-.36222-.2034-.9792S.64206 2.05344.71562 1.49064" transform="rotate(45 1.883 4.7)"/><path d="M.0504.1986 1.75764 3.91812S1.78704 3.98922 1.83444 3.96966C1.88184 3.95004 1.85238 3.87894 1.85238 3.87894L.42948.04158m-.0408 1.4472c-.02082.56568.32712.87678.28164 1.38192-.04542.5052.23202.7908.2964.98724s-.0696.31392-.01188.34188C1.01262 4.22778 1.13904 4.07262 1.09782 3.79332c-.04122-.2793-.2532-.36222-.2034-.9792S.64206 2.05344.71562 1.49064" transform="rotate(67.5 1.965 2.994)"/></g><g fill="#f6b40e" fill-rule="nonzero" stroke="#85340a" stroke-width=".1" transform="rotate(180 11.98 7.65)"><path d="M3.7704.3786 5.47764 4.09812S5.50704 4.16922 5.55444 4.14966C5.60184 4.13004 5.57238 4.05894 5.57238 4.05894L4.14948.22158m-.0408 1.4472C4.08786 2.23446 4.4358 2.54556 4.39032 3.0507c-.04542.5052.23202.7908.2964.98724S4.61712 4.35186 4.67484 4.37982C4.73262 4.40778 4.85904 4.25262 4.81782 3.97332S4.56462 3.6111 4.61442 2.99412C4.66422 2.37714 4.36206 2.23344 4.43562 1.67064"/><path d="M.0504.1986 1.75764 3.91812S1.78704 3.98922 1.83444 3.96966C1.88184 3.95004 1.85238 3.87894 1.85238 3.87894L.42948.04158m-.0408 1.4472c-.02082.56568.32712.87678.28164 1.38192-.04542.5052.23202.7908.2964.98724s-.0696.31392-.01188.34188C1.01262 4.22778 1.13904 4.07262 1.09782 3.79332c-.04122-.2793-.2532-.36222-.2034-.9792S.64206 2.05344.71562 1.49064" transform="rotate(22.5 1.648 9.56)"/><path d="M.0504.1986 1.75764 3.91812S1.78704 3.98922 1.83444 3.96966C1.88184 3.95004 1.85238 3.87894 1.85238 3.87894L.42948.04158m-.0408 1.4472c-.02082.56568.32712.87678.28164 1.38192-.04542.5052.23202.7908.2964.98724s-.0696.31392-.01188.34188C1.01262 4.22778 1.13904 4.07262 1.09782 3.79332c-.04122-.2793-.2532-.36222-.2034-.9792S.64206 2.05344.71562 1.49064" transform="rotate(45 1.883 4.7)"/><path d="M.0504.1986 1.75764 3.91812S1.78704 3.98922 1.83444 3.96966C1.88184 3.95004 1.85238 3.87894 1.85238 3.87894L.42948.04158m-.0408 1.4472c-.02082.56568.32712.87678.28164 1.38192-.04542.5052.23202.7908.2964.98724s-.0696.31392-.01188.34188C1.01262 4.22778 1.13904 4.07262 1.09782 3.79332c-.04122-.2793-.2532-.36222-.2034-.9792S.64206 2.05344.71562 1.49064" transform="rotate(67.5 1.965 2.994)"/></g><g fill="#f6b40e" fill-rule="nonzero" stroke="#85340a" stroke-width=".1" transform="rotate(-90 19.33 -.37)"><path d="M3.7704.3786 5.47764 4.09812S5.50704 4.16922 5.55444 4.14966C5.60184 4.13004 5.57238 4.05894 5.57238 4.05894L4.14948.22158m-.0408 1.4472C4.08786 2.23446 4.4358 2.54556 4.39032 3.0507c-.04542.5052.23202.7908.2964.98724S4.61712 4.35186 4.67484 4.37982C4.73262 4.40778 4.85904 4.25262 4.81782 3.97332S4.56462 3.6111 4.61442 2.99412C4.66422 2.37714 4.36206 2.23344 4.43562 1.67064"/><path d="M.0504.1986 1.75764 3.91812S1.78704 3.98922 1.83444 3.96966C1.88184 3.95004 1.85238 3.87894 1.85238 3.87894L.42948.04158m-.0408 1.4472c-.02082.56568.32712.87678.28164 1.38192-.04542.5052.23202.7908.2964.98724s-.0696.31392-.01188.34188C1.01262 4.22778 1.13904 4.07262 1.09782 3.79332c-.04122-.2793-.2532-.36222-.2034-.9792S.64206 2.05344.71562 1.49064" transform="rotate(22.5 1.648 9.56)"/><path d="M.0504.1986 1.75764 3.91812S1.78704 3.98922 1.83444 3.96966C1.88184 3.95004 1.85238 3.87894 1.85238 3.87894L.42948.04158m-.0408 1.4472c-.02082.56568.32712.87678.28164 1.38192-.04542.5052.23202.7908.2964.98724s-.0696.31392-.01188.34188C1.01262 4.22778 1.13904 4.07262 1.09782 3.79332c-.04122-.2793-.2532-.36222-.2034-.9792S.64206 2.05344.71562 1.49064" transform="rotate(45 1.883 4.7)"/><path d="M.0504.1986 1.75764 3.91812S1.78704 3.98922 1.83444 3.96966C1.88184 3.95004 1.85238 3.87894 1.85238 3.87894L.42948.04158m-.0408 1.4472c-.02082.56568.32712.87678.28164 1.38192-.04542.5052.23202.7908.2964.98724s-.0696.31392-.01188.34188C1.01262 4.22778 1.13904 4.07262 1.09782 3.79332c-.04122-.2793-.2532-.36222-.2034-.9792S.64206 2.05344.71562 1.49064" transform="rotate(67.5 1.965 2.994)"/></g><circle cx="20" cy="15" r="1.667" fill="#f6b40e" fill-rule="nonzero" stroke="#85340a" stroke-width=".1"/><path fill="#843511" fill-rule="nonzero" d="M20.5681875 14.643625C20.4544375 14.643625 20.3454375 14.6929375 20.2813125 14.7955 20.4095 14.9108125 20.6926875 14.923375 20.8850625 14.782375 20.8028102 14.694803 20.6883257 14.6446737 20.5681875 14.643625zM20.5663125 14.669875C20.677125 14.6678125 20.780625 14.7186875 20.7950625 14.76925 20.666875 14.91025 20.462 14.898 20.3338125 14.7955 20.3899375 14.70575 20.4801875 14.6714375 20.5663125 14.669875z"/></g></g></g></svg>