<svg xmlns="http://www.w3.org/2000/svg" xmlns:xlink="http://www.w3.org/1999/xlink" width="48" height="48" viewBox="0 0 48 48"><defs><path id="au-a" d="M8 9H40c2.209139.0 4 1.790861 4 4V35c0 2.209139-1.790861 4-4 4H8c-2.209139.0-4-1.790861-4-4V13c0-2.209139 1.790861-4 4-4z"/></defs><g fill="none" fill-rule="evenodd"><polygon points="0 0 48 0 48 48 0 48"/><mask id="au-b" fill="#fff"><use xlink:href="#au-a"/></mask><use fill="#d8d8d8" xlink:href="#au-a"/><g mask="url(#au-b)"><g transform="translate(4 9)"><polygon fill="#006" fill-rule="nonzero" points="0 0 40 0 40 30 0 30"/><path fill="#fff" fill-rule="nonzero" d="M0 0V1.746875L19.1898125 15.625H21.60525V13.878125L2.4154375.0H0zM21.60525.0V1.746875L2.4154375 15.625H0V13.878125L19.1898125.0H21.60525z"/><path fill="#fff" fill-rule="nonzero" d="M9.0021875.0V15.625h3.600875V0H9.002125 9.0021875zM0 5.2083125V10.416625H21.60525V5.2083125H0z"/><path fill="#c00" fill-rule="nonzero" d="M0 6.25V9.375H21.60525V6.25H0zM9.722375.0V15.625h2.1605V0h-2.1605zM0 15.625l7.20175-5.208375H8.8120625L1.6103125 15.625H0zM0 0 7.20175 5.2083125H5.5914375L0 1.1645625V0zM12.793125 5.2083125 19.995.0h1.61025L14.4035 5.2083125H12.793125zM21.605375 15.625l-7.2018125-5.208375H16.013875l5.5915 4.04375V15.625z"/><path fill="#fff" d="M18.735125 24.5326875 16.0068125 24.769875 16.382625 27.48275 14.4959375 25.4975l-1.886625 1.98525L12.9851875 24.769875 10.256875 24.5326875l2.355-1.39775L11.096625 20.854 13.65725 21.823625 14.496 19.2165625 15.33475 21.8235625 17.895375 20.853875 16.38025 23.13475M30.408 27.033 29.7494375 26.042125 30.8625625 26.4635 31.2265625 25.3306875 31.590625 26.4635625 32.7035625 26.0421875 32.045 27.0330625 33.068125 27.6404375 31.8828125 27.7435625 32.0463125 28.9216875 31.2265625 28.059625 30.40675 28.92175 30.57025 27.743625 29.385 27.6405M30.408 9.4020625 29.7494375 8.4110625 30.8625625 8.8324375 31.2265625 7.6998125 31.590625 8.8323125 32.7035625 8.4110625 32.045 9.402 33.068125 10.0093125l-1.1853125.103125L32.0463125 11.2905625 31.2265625 10.4285 30.40675 11.290625 30.57025 10.1125 29.385 10.009375m-5.588625 6.5551875L23.1378125 15.57375 24.2508125 15.995125 24.614875 14.8623125 24.9789375 15.995125 26.0919375 15.57375 25.4334375 16.5645625 26.4565625 17.1720625 25.27125 17.2751875 25.4346875 18.4533125 24.614875 17.591125 23.7950625 18.4533125 23.958625 17.2751875 22.773375 17.1720625M36.286625 14.8015 35.62675 13.810625 36.740625 14.232 37.102 13.0991875 37.467875 14.232 38.578625 13.810625 37.921875 14.8015 38.9445 15.408875 37.758875 15.512 37.921875 16.690125 37.102 15.8280625 36.2821875 16.690125 36.4453125 15.512l-1.1835-.103125M33.871125 19.996 33.2231875 20.3975625 33.4053125 19.6575625 32.8230625 19.166125 33.583375 19.110125 33.8711875 18.4045 34.1590625 19.110125 34.919375 19.1661875 34.3370625 19.657625 34.5190625 20.397625"/></g></g></g></svg>