<svg xmlns="http://www.w3.org/2000/svg" xmlns:xlink="http://www.w3.org/1999/xlink" width="48" height="48" viewBox="0 0 48 48"><defs><path id="fr-a" d="M8 9H40c2.209139.0 4 1.790861 4 4V35c0 2.209139-1.790861 4-4 4H8c-2.209139.0-4-1.790861-4-4V13c0-2.209139 1.790861-4 4-4z"/></defs><g fill="none" fill-rule="evenodd"><polygon points="0 0 48 0 48 48 0 48"/><mask id="fr-b" fill="#fff"><use xlink:href="#fr-a"/></mask><use fill="#d8d8d8" xlink:href="#fr-a"/><g fill-rule="nonzero" mask="url(#fr-b)"><g transform="translate(4 9)"><polygon fill="#fff" points="0 0 40 0 40 30 0 30"/><polygon fill="#00267f" points="0 0 13.334 0 13.334 30 0 30"/><polygon fill="#f31830" points="26.666 0 40 0 40 30 26.666 30"/></g></g></g></svg>