<svg xmlns="http://www.w3.org/2000/svg" width="24" height="24" viewBox="0 0 24 24"><path fill="#1b1d22" fill-rule="evenodd" d="M8.2896 20.2511752c7.5472.0 11.6752-6.2528 11.6752-11.67519997.0-.1776.0-.3544-.0120000000000005-.530399999999998C20.7558651 7.46470391 21.4490844 6.74547874 22 5.92157523c-.748896800000001.33184141-1.5433366.54946291-2.3568.6456.856595200000001-.51281436 1.4976988-1.31938242 1.804-2.2696-.805474.47796425-1.6866831.81480961-2.6056.996-1.2719338-1.35248458-3.2930245-1.68350994-4.9299606-.80745606-1.636936.87605387-2.4826194 2.74131664-2.0628394 4.54985606C8.54951659 8.87057485 5.47558062 7.31223384 3.392 4.74877523 2.30289821 6.62369101 2.85919031 9.02226281 4.6624 10.2263752 4.00939296 10.2070213 3.3706235 10.0308658 2.8 9.71277523 2.8 9.72957523 2.8 9.74717523 2.8 9.76477523 2.80053451 11.7180496 4.17740119 13.4004034 6.092 13.7871752 5.48789568 13.9519273 4.85406447 13.9760107 4.2392 13.8575752c.53755834 1.6715383 2.07805965 2.8166271 3.8336 2.8496-1.45301197 1.1419456-3.24795239 1.7618622-5.096 1.76C2.65032286 18.4665485 2.32416325 18.4467812 2 18.4079752c1.87650876 1.2042213 4.05993072 1.8429736 6.2896 1.84"/></svg>