<svg xmlns="http://www.w3.org/2000/svg" xmlns:xlink="http://www.w3.org/1999/xlink" width="48" height="48" viewBox="0 0 48 48"><defs><path id="us-a" d="M8 9H40c2.209139.0 4 1.790861 4 4V35c0 2.209139-1.790861 4-4 4H8c-2.209139.0-4-1.790861-4-4V13c0-2.209139 1.790861-4 4-4z"/></defs><g fill="none" fill-rule="evenodd"><polygon points="0 0 48 0 48 48 0 48"/><mask id="us-b" fill="#fff"><use xlink:href="#us-a"/></mask><use fill="#d8d8d8" xlink:href="#us-a"/><g mask="url(#us-b)"><g transform="translate(4 9)"><path fill="#bd3d44" fill-rule="nonzero" d="M0 0H39.9921891V2.30321637H0V0zM0 4.60643275H39.9921891V6.90964912H0V4.60643275zM0 9.2128655H39.9921891v2.3032164H0V9.2128655zm0 4.6064327H39.9921891v2.3032164H0V13.8192982zM0 18.425731H39.9921891v2.3032164H0V18.425731zm0 4.6064327H39.9921891v2.3032164H0V23.0321637zm0 4.6064328H39.9921891v2.3032164H0V27.6385965z"/><path fill="#fff" fill-rule="nonzero" d="M0 2.30321637H39.9921891V4.60643275H0V2.30321637zM0 6.90964912H39.9921891V9.2128655H0V6.90964912zM0 11.5160819H39.9921891v2.3032163H0V11.5160819zm0 4.6064327H39.9921891V18.425731H0V16.1225146zm0 4.6064328H39.9921891v2.3032163H0V20.7289474zm0 4.6064327H39.9921891v2.3032164H0V25.3353801z"/><polygon fill="#192f5d" fill-rule="nonzero" points="0 0 19 0 19 16.154 0 16.154"/><path fill="#fff" fill-rule="nonzero" d="M.903925781.046875 1.11134766.6853125h.67136718l-.54316406.39462891.20748047.6384375-.543164062-.39457032-.543046875.39457032.207421875-.6384375L.0251367188.6853125H.696445313L.903925781.046875zm3.799980469.0.20748047.6384375h.67136719l-.54316407.39462891.20748047.6384375-.54316406-.39457032-.54304688.39457032.20742188-.6384375L3.82517578.6853125h.67130859L4.70390625.046875zm3.80015625.0L8.71148437.6853125h.67136719L8.8396875 1.07994141l.20748047.6384375-.54310547-.39457032-.54310547.39457032L8.16837891 1.07994141 7.62527344.6853125h.67136718L8.5040625.046875zm3.7999219.0L12.5114063.6853125H13.1827148l-.5431054.39462891.2074219.6384375-.5430469-.39457032L11.7608203 1.71837891 11.9683008 1.07994141 11.4251367.6853125H12.0965039L12.3039844.046875zm3.8000976.0L16.3115039.6853125H16.9828711L16.439707 1.07994141 16.6471875 1.71837891 16.1040234 1.32380859 15.5609766 1.71837891 15.7683984 1.07994141 15.225293.6853125h.6713086L16.104082.046875zM2.80400391 1.66230469l.20742187.6384375h.67136719l-.54316406.39457031.20753906.63849609-.54316406-.39457031-.54310547.39457031.20742187-.63849609-.54310547-.39457031h.67136719l.20742188-.6384375zm3.79992187.0.20742188.6384375h.67130859l-.54310547.39457031.20742188.63849609-.54304688-.39457031-.54316406.39457031L6.26824219 2.6953125l-.54316407-.39457031h.67136719l.20748047-.6384375zm3.80009762.0.2074219.6384375H11.2828125l-.5431641.39457031L10.9471289 3.33380859 10.4039648 2.93923828 9.86091797 3.33380859 10.0683398 2.6953125 9.52523437 2.30074219H10.196543l.2074804-.6384375zm3.8000977.0.2074219.6384375H15.0829102l-.5431641.39457031L14.7472266 3.33380859 14.2041211 2.93923828l-.5431641.39457031L13.8685547 2.6953125l-.5431641-.39457031H13.9967578L14.2041211 1.66230469zM.903925781 3.27767578l.207421879.6384375h.67136718l-.54316406.39462891.20748047.6384375L.903867188 4.55460938.360820313 4.94917969l.207421875-.6384375-.5431054692-.39462891H.696445313l.207480468-.6384375zm3.799980469.0.20748047.6384375h.67136719l-.54316407.39462891.20748047.6384375L4.70390625 4.55460938 4.16085937 4.94917969l.20742188-.6384375-.54310547-.39462891h.67130859l.20742188-.6384375zm3.80015625.0L8.71148437 3.91611328h.67136719L8.8396875 4.31074219l.20748047.6384375L8.5040625 4.55460938 7.96095703 4.94917969 8.16837891 4.31074219l-.54310547-.39462891h.67136718l.20742188-.6384375zm3.7999219.0L12.5114063 3.91611328H13.1827148l-.5431054.39462891.2074219.6384375L12.3039844 4.55460938 11.7608203 4.94917969 11.9683008 4.31074219l-.5431641-.39462891H12.0965039L12.3039844 3.27767578zm3.8000976.0L16.3115039 3.91611328H16.9828711L16.439707 4.31074219 16.6471875 4.94917969 16.1040234 4.55460938 15.5609766 4.94917969 15.7683984 4.31074219l-.5431054-.39462891h.6713086L16.104082 3.27767578zM2.80400391 4.89304687l.20742187.6384961h.67136719l-.54316406.39457031.20753906.63849609L2.80400391 6.17003906 2.26089844 6.56460937l.20742187-.63849609-.54310547-.39457031h.67136719l.20742188-.6384961zm3.79992187.0.20742188.6384961h.67130859l-.54310547.39457031.20742188.63849609L6.60392578 6.17003906 6.06076172 6.56460937 6.26824219 5.92611328l-.54316407-.39457031h.67136719l.20748047-.6384961zm3.80009762.0.2074219.6384961H11.2828125l-.5431641.39457031L10.9471289 6.56460937 10.4039648 6.17003906 9.86091797 6.56460937 10.0683398 5.92611328 9.52523437 5.53154297H10.196543l.2074804-.6384961zm3.8000977.0.2074219.6384961H15.0829102l-.5431641.39457031L14.7472266 6.56460937 14.2041211 6.17003906 13.660957 6.56460937l.2075391-.63849609-.5431641-.39457031H13.9966992l.2074219-.6384961zM.903925781 6.50847656l.207421879.6384375h.67136718l-.54316406.39462891.20748047.6384375L.903867188 7.78541016.360820313 8.17998047l.207421875-.6384375-.5431054692-.39462891H.696445313l.207480468-.6384375zm3.799980469.0.20748047.6384375h.67136719l-.54316407.39462891.20748047.6384375L4.70390625 7.78541016 4.16085937 8.17998047l.20742188-.6384375-.54310547-.39462891h.67130859l.20742188-.6384375zm3.80015625.0L8.71148437 7.14691406h.67136719L8.8396875 7.54154297l.20748047.6384375L8.5040625 7.78541016 7.96095703 8.17998047 8.16837891 7.54154297l-.54310547-.39462891h.67136718l.20742188-.6384375zm3.7999219.0L12.5114063 7.14691406H13.1827148l-.5431054.39462891.2074219.6384375L12.3039844 7.78541016 11.7608203 8.17998047 11.9683008 7.54154297l-.5431641-.39462891H12.0965039L12.3039844 6.50847656zm3.8000976.0L16.3115039 7.14691406H16.9828711L16.439707 7.54154297 16.6471875 8.17998047 16.1040234 7.78541016 15.5609766 8.17998047 15.7683984 7.54154297l-.5431054-.39462891h.6713086L16.104082 6.50847656zM2.80400391 8.12384766l.20742187.63849609h.67136719L3.13962891 9.15691406 3.34716797 9.79541016l-.54316406-.39457032-.54310547.39457032L2.46832031 9.15691406 1.92521484 8.76234375h.67136719l.20742188-.63849609zm3.79992187.0.20742188.63849609h.67130859L6.93955078 9.15691406 7.14697266 9.79541016l-.54304688-.39457032-.54316406.39457032L6.26824219 9.15691406 5.72507812 8.76234375h.67136719l.20748047-.63849609zm3.80009762.0.2074219.63849609H11.2828125L10.7396484 9.15691406 10.9471289 9.79541016 10.4039648 9.40083984 9.86091797 9.79541016 10.0683398 9.15691406 9.52523437 8.76234375H10.196543l.2074804-.63849609zm3.8000977.0.2074219.63849609H15.0829102L14.5397461 9.15691406 14.7472266 9.79541016 14.2041211 9.40083984l-.5431641.39457032L13.8684961 9.15691406 13.325332 8.76234375H13.9966992l.2074219-.63849609zM.903925781 9.73927734 1.11134766 10.3777148h.67136718l-.54316406.394629.20748047.6384375L.903867188 11.0162109.360820313 11.4107813l.207421875-.6384375-.5431054692-.394629H.696445313L.903925781 9.73927734zm3.799980469.0L4.91138672 10.3777148h.67136719l-.54316407.394629.20748047.6384375L4.70390625 11.0162109 4.16085937 11.4107813l.20742188-.6384375-.54310547-.394629h.67130859L4.70390625 9.73927734zm3.80015625.0L8.71148437 10.3777148h.67136719L8.8396875 10.7723438l.20748047.6384375L8.5040625 11.0162109 7.96095703 11.4107813 8.16837891 10.7723438l-.54310547-.394629h.67136718L8.5040625 9.73927734zm3.7999219.0L12.5114063 10.3777148H13.1827148l-.5431054.394629.2074219.6384375L12.3039844 11.0162109 11.7608203 11.4107813 11.9683008 10.7723438l-.5431641-.394629H12.0965039L12.3039844 9.73927734zm3.8000976.0L16.3115039 10.3777148H16.9828711L16.439707 10.7723438 16.6471875 11.4107813 16.1040234 11.0162109 15.5609766 11.4107813 15.7683984 10.7723438l-.5431054-.394629h.6713086L16.104082 9.73927734zM2.80400391 11.3546484 3.01142578 11.9931445h.67136719l-.54316406.3945703L3.34716797 13.0262109l-.54316406-.3945703-.54310547.3945703L2.46832031 12.3877148l-.54310547-.3945703h.67136719L2.80400391 11.3546484zm3.79992187.0L6.81134766 11.9931445h.67130859l-.54310547.3945703L7.14697266 13.0262109l-.54304688-.3945703-.54316406.3945703L6.26824219 12.3877148l-.54316407-.3945703h.67136719L6.60392578 11.3546484zm3.80009762.0L10.6114453 11.9931445H11.2828125l-.5431641.3945703L10.9471289 13.0262109 10.4039648 12.6316406 9.86091797 13.0262109 10.0683398 12.3877148 9.52523437 11.9931445H10.196543L10.4040234 11.3546484zm3.8000977.0L14.411543 11.9931445H15.0829102l-.5431641.3945703L14.7472266 13.0262109 14.2041211 12.6316406l-.5431641.3945703L13.8684961 12.3877148l-.5431641-.3945703H13.9966992L14.2041211 11.3546484zM.903925781 12.9700781l.207421879.6384375h.67136718L1.23955078 14.0031445l.20748047.6384375-.543164062-.3945703-.543046875.3945703.207421875-.6384375L.0251367188 13.6085156H.696445313l.207480468-.6384375zm3.799980469.0.20748047.6384375h.67136719L5.03958984 14.0031445l.20748047.6384375-.54316406-.3945703-.54304688.3945703.20742188-.6384375L3.82517578 13.6085156h.67130859l.20742188-.6384375zm3.80015625.0L8.71148437 13.6085156h.67136719L8.8396875 14.0031445l.20748047.6384375-.54310547-.3945703-.54310547.3945703L8.16837891 14.0031445 7.62527344 13.6085156h.67136718l.20742188-.6384375zm3.7999219.0L12.5114063 13.6085156H13.1827148L12.6396094 14.0031445l.2074219.6384375-.5430469-.3945703L11.7608203 14.641582 11.9683008 14.0031445 11.4251367 13.6085156H12.0965039L12.3039844 12.9700781zm3.8000976.0L16.3115039 13.6085156H16.9828711L16.439707 14.0031445 16.6471875 14.641582 16.1040234 14.2470117 15.5609766 14.641582 15.7683984 14.0031445 15.225293 13.6085156h.6713086L16.104082 12.9700781z" transform="translate(1 .645)"/></g></g></g></svg>