<svg xmlns="http://www.w3.org/2000/svg" xmlns:xlink="http://www.w3.org/1999/xlink" width="48" height="48" viewBox="0 0 48 48"><defs><path id="in-a" d="M8 9H40c2.209139.0 4 1.790861 4 4V35c0 2.209139-1.790861 4-4 4H8c-2.209139.0-4-1.790861-4-4V13c0-2.209139 1.790861-4 4-4z"/></defs><g fill="none" fill-rule="evenodd"><polygon points="0 0 48 0 48 48 0 48"/><mask id="in-b" fill="#fff"><use xlink:href="#in-a"/></mask><use fill="#d8d8d8" xlink:href="#in-a"/><g mask="url(#in-b)"><g transform="translate(4 9)"><polygon fill="#f93" fill-rule="nonzero" points="0 0 40 0 40 10 0 10"/><polygon fill="#fff" fill-rule="nonzero" points="0 10 40 10 40 20 0 20"/><polygon fill="#128807" fill-rule="nonzero" points="0 20 40 20 40 30 0 30"/><g transform="translate(8.4 .6)"><circle cx="11.6" cy="14.4" r="4" fill="#008" fill-rule="nonzero"/><circle cx="11.6" cy="14.4" r="3.5" fill="#fff" fill-rule="nonzero"/><circle cx="11.6" cy="14.4" r="1" fill="#008" fill-rule="nonzero"/><g fill="#008" fill-rule="nonzero" transform="translate(.6 7)"><g transform="translate(5.6 5.8)"><g transform="translate(3.2 1.6)"><g transform="translate(2 .2)"><circle cx="3.953" cy=".619" r="1" transform="rotate(7.5 3.953 .619)"/><polygon points=".33 3.3 .58 1.2 .33 .2 .08 1.2"/></g><g transform="rotate(15 .44 7.496)"><circle cx="3.953" cy=".619" r="1" transform="rotate(7.5 3.953 .619)"/><polygon points=".33 3.3 .58 1.2 .33 .2 .08 1.2"/></g></g><g transform="rotate(30 .814 6.771)"><g transform="translate(2 .2)"><circle cx="3.953" cy=".619" r="1" transform="rotate(7.5 3.953 .619)"/><polygon points=".33 3.3 .58 1.2 .33 .2 .08 1.2"/></g><g transform="rotate(15 .44 7.496)"><circle cx="3.953" cy=".619" r="1" transform="rotate(7.5 3.953 .619)"/><polygon points=".33 3.3 .58 1.2 .33 .2 .08 1.2"/></g></g></g><g transform="rotate(60 3.177 9.35)"><g transform="translate(3.2 1.6)"><g transform="translate(2 .2)"><circle cx="3.953" cy=".619" r="1" transform="rotate(7.5 3.953 .619)"/><polygon points=".33 3.3 .58 1.2 .33 .2 .08 1.2"/></g><g transform="rotate(15 .44 7.496)"><circle cx="3.953" cy=".619" r="1" transform="rotate(7.5 3.953 .619)"/><polygon points=".33 3.3 .58 1.2 .33 .2 .08 1.2"/></g></g><g transform="rotate(30 .814 6.771)"><g transform="translate(2 .2)"><circle cx="3.953" cy=".619" r="1" transform="rotate(7.5 3.953 .619)"/><polygon points=".33 3.3 .58 1.2 .33 .2 .08 1.2"/></g><g transform="rotate(15 .44 7.496)"><circle cx="3.953" cy=".619" r="1" transform="rotate(7.5 3.953 .619)"/><polygon points=".33 3.3 .58 1.2 .33 .2 .08 1.2"/></g></g></g></g><g fill="#008" fill-rule="nonzero" transform="rotate(120 9.28 11.073)"><g transform="translate(5.6 5.8)"><g transform="translate(3.2 1.6)"><g transform="translate(2 .2)"><circle cx="3.953" cy=".619" r="1" transform="rotate(7.5 3.953 .619)"/><polygon points=".33 3.3 .58 1.2 .33 .2 .08 1.2"/></g><g transform="rotate(15 .44 7.496)"><circle cx="3.953" cy=".619" r="1" transform="rotate(7.5 3.953 .619)"/><polygon points=".33 3.3 .58 1.2 .33 .2 .08 1.2"/></g></g><g transform="rotate(30 .814 6.771)"><g transform="translate(2 .2)"><circle cx="3.953" cy=".619" r="1" transform="rotate(7.5 3.953 .619)"/><polygon points=".33 3.3 .58 1.2 .33 .2 .08 1.2"/></g><g transform="rotate(15 .44 7.496)"><circle cx="3.953" cy=".619" r="1" transform="rotate(7.5 3.953 .619)"/><polygon points=".33 3.3 .58 1.2 .33 .2 .08 1.2"/></g></g></g><g transform="rotate(60 3.177 9.35)"><g transform="translate(3.2 1.6)"><g transform="translate(2 .2)"><circle cx="3.953" cy=".619" r="1" transform="rotate(7.5 3.953 .619)"/><polygon points=".33 3.3 .58 1.2 .33 .2 .08 1.2"/></g><g transform="rotate(15 .44 7.496)"><circle cx="3.953" cy=".619" r="1" transform="rotate(7.5 3.953 .619)"/><polygon points=".33 3.3 .58 1.2 .33 .2 .08 1.2"/></g></g><g transform="rotate(30 .814 6.771)"><g transform="translate(2 .2)"><circle cx="3.953" cy=".619" r="1" transform="rotate(7.5 3.953 .619)"/><polygon points=".33 3.3 .58 1.2 .33 .2 .08 1.2"/></g><g transform="rotate(15 .44 7.496)"><circle cx="3.953" cy=".619" r="1" transform="rotate(7.5 3.953 .619)"/><polygon points=".33 3.3 .58 1.2 .33 .2 .08 1.2"/></g></g></g></g><g fill="#008" fill-rule="nonzero" transform="rotate(-120 13.32 10.727)"><g transform="translate(5.6 5.8)"><g transform="translate(3.2 1.6)"><g transform="translate(2 .2)"><circle cx="3.953" cy=".619" r="1" transform="rotate(7.5 3.953 .619)"/><polygon points=".33 3.3 .58 1.2 .33 .2 .08 1.2"/></g><g transform="rotate(15 .44 7.496)"><circle cx="3.953" cy=".619" r="1" transform="rotate(7.5 3.953 .619)"/><polygon points=".33 3.3 .58 1.2 .33 .2 .08 1.2"/></g></g><g transform="rotate(30 .814 6.771)"><g transform="translate(2 .2)"><circle cx="3.953" cy=".619" r="1" transform="rotate(7.5 3.953 .619)"/><polygon points=".33 3.3 .58 1.2 .33 .2 .08 1.2"/></g><g transform="rotate(15 .44 7.496)"><circle cx="3.953" cy=".619" r="1" transform="rotate(7.5 3.953 .619)"/><polygon points=".33 3.3 .58 1.2 .33 .2 .08 1.2"/></g></g></g><g transform="rotate(60 3.177 9.35)"><g transform="translate(3.2 1.6)"><g transform="translate(2 .2)"><circle cx="3.953" cy=".619" r="1" transform="rotate(7.5 3.953 .619)"/><polygon points=".33 3.3 .58 1.2 .33 .2 .08 1.2"/></g><g transform="rotate(15 .44 7.496)"><circle cx="3.953" cy=".619" r="1" transform="rotate(7.5 3.953 .619)"/><polygon points=".33 3.3 .58 1.2 .33 .2 .08 1.2"/></g></g><g transform="rotate(30 .814 6.771)"><g transform="translate(2 .2)"><circle cx="3.953" cy=".619" r="1" transform="rotate(7.5 3.953 .619)"/><polygon points=".33 3.3 .58 1.2 .33 .2 .08 1.2"/></g><g transform="rotate(15 .44 7.496)"><circle cx="3.953" cy=".619" r="1" transform="rotate(7.5 3.953 .619)"/><polygon points=".33 3.3 .58 1.2 .33 .2 .08 1.2"/></g></g></g></g></g></g></g></g></svg>