<svg xmlns="http://www.w3.org/2000/svg" width="24" height="24" viewBox="0 0 24 24"><path fill="#001d2f" fill-rule="evenodd" d="M18.3333333 4H6.66666667C5.19390733 4 4 5.19390733 4 6.66666667V20L4.00598327 20.1136309C4.09281919 20.9276677 5.1045317 21.3096819 5.70710678 20.7071068L8.747 17.666 18.3333333 17.6666667C19.8060927 17.6666667 21 16.4727593 21 15V6.66666667C21 5.19390733 19.8060927 4 18.3333333 4zM6.66666667 6H18.3333333C18.7015232 6 19 6.29847683 19 6.66666667V15c0 .3681898-.2984768.6666667-.6666667.6666667H8.33333333L8.20188935 15.6753391C7.98518825 15.7040684 7.78250687 15.8032796 7.62622655 15.9595599L6 17.585V6.66666667C6 6.29847683 6.29847683 6 6.66666667 6z"/></svg>